<?xml version="1.0" ?><svg id="Layer_1" style="enable-background:new 0 0 32 32;" version="1.1" viewBox="0 0 32 32" xml:space="preserve" xmlns="http://www.w3.org/2000/svg" xmlns:xlink="http://www.w3.org/1999/xlink"><style type="text/css">
	.st0{fill:#E4EDF2;}
	.st1{fill:#FBC34E;}
</style><g id="Warning"><g><path class="st0" d="M16,2C8.28,2,2,8.28,2,16s6.28,14,14,14s14-6.28,14-14S23.72,2,16,2z M16,25.321c-1.654,0-3-1.346-3-3    s1.346-3,3-3s3,1.346,3,3S17.654,25.321,16,25.321z M18.611,16.824c-0.076,0.773-0.718,1.354-1.493,1.354h-2.235    c-0.775,0-1.417-0.582-1.493-1.353l-0.777-7.953c-0.055-0.56,0.13-1.121,0.509-1.538c0.378-0.417,0.918-0.656,1.481-0.656h2.795    c0.563,0,1.104,0.239,1.481,0.656c0.378,0.417,0.564,0.978,0.509,1.539L18.611,16.824z"/><path class="st1" d="M17.397,6.679h-2.795c-0.563,0-1.104,0.239-1.481,0.656c-0.378,0.417-0.564,0.978-0.509,1.538l0.777,7.953    c0.076,0.771,0.718,1.353,1.493,1.353h2.235c0.775,0,1.417-0.582,1.493-1.354l0.777-7.951c0.055-0.561-0.13-1.121-0.509-1.539    C18.501,6.918,17.961,6.679,17.397,6.679z"/><circle class="st1" cx="16" cy="22.321" r="3"/></g></g></svg>