<?xml version="1.0" encoding="UTF-8"?>
<svg xmlns="http://www.w3.org/2000/svg" xmlns:xlink="http://www.w3.org/1999/xlink" width="20px" height="20px" viewBox="0 0 20 20" version="1.1">
<g id="surface1">
<path style=" stroke:none;fill-rule:nonzero;fill:rgb(0%,0%,0%);fill-opacity:1;" d="M 9.980469 1.875 C 11.691406 1.875 13.277344 2.207031 14.734375 2.875 C 16.1875 3.542969 17.339844 4.449219 18.183594 5.59375 C 19.03125 6.742188 19.453125 7.992188 19.453125 9.347656 C 19.453125 10.699219 19.03125 11.953125 18.183594 13.101562 C 17.339844 14.253906 16.191406 15.160156 14.738281 15.828125 C 13.285156 16.492188 11.699219 16.828125 9.980469 16.828125 C 9.4375 16.828125 8.878906 16.789062 8.300781 16.710938 C 5.789062 18.453125 4.453125 19.335938 4.292969 19.355469 C 4.214844 19.382812 4.140625 19.382812 4.070312 19.34375 C 4.042969 19.324219 4.019531 19.296875 4.007812 19.261719 C 3.992188 19.226562 3.984375 19.195312 3.984375 19.164062 L 3.984375 19.125 C 4.027344 18.847656 4.347656 17.703125 4.949219 15.683594 C 3.585938 15.007812 2.507812 14.109375 1.707031 12.992188 C 0.90625 11.875 0.507812 10.65625 0.507812 9.347656 C 0.507812 7.992188 0.929688 6.742188 1.777344 5.59375 C 2.621094 4.449219 3.773438 3.542969 5.226562 2.875 C 6.683594 2.207031 8.269531 1.875 9.980469 1.875 Z M 9.980469 1.875 "/>
</g>
</svg>
